HIERARCHY
ROOT Hips
{
	OFFSET -0.001795 -0.223333 0.028219
	CHANNELS 6 Xposition Yposition Zposition Zrotation Yrotation Xrotation 
	JOINT LeftUpLeg
	{
		OFFSET 0.069520 -0.091406 -0.006815
		CHANNELS 3 Zrotation Yrotation Xrotation
		JOINT LeftLeg
		{
			OFFSET 0.034277 -0.375199 -0.004496
			CHANNELS 3 Zrotation Yrotation Xrotation
			JOINT LeftFoot
			{
				OFFSET -0.013596 -0.397961 -0.043693
				CHANNELS 3 Zrotation Yrotation Xrotation
				JOINT LeftToe
				{
					OFFSET 0.026358 -0.055791 0.119288
					CHANNELS 3 Zrotation Yrotation Xrotation
					End Site
					{
						OFFSET 0.000000 0.000000 0.000000
					}
				}
			}
		}
	}
	JOINT RightUpLeg
	{
		OFFSET -0.067670 -0.090522 -0.004320
		CHANNELS 3 Zrotation Yrotation Xrotation
		JOINT RightLeg
		{
			OFFSET -0.038290 -0.382569 -0.008850
			CHANNELS 3 Zrotation Yrotation Xrotation
			JOINT RightFoot
			{
				OFFSET 0.015774 -0.398415 -0.042312
				CHANNELS 3 Zrotation Yrotation Xrotation
				JOINT RightToe
				{
					OFFSET -0.025372 -0.048144 0.123348
					CHANNELS 3 Zrotation Yrotation Xrotation
					End Site
					{
						OFFSET 0.000000 0.000000 0.000000
					}
				}
			}
		}
	}
	JOINT Spine
	{
		OFFSET -0.002533 0.108963 -0.026696
		CHANNELS 3 Zrotation Yrotation Xrotation
		JOINT Spine1
		{
			OFFSET 0.005487 0.135180 0.001092
			CHANNELS 3 Zrotation Yrotation Xrotation
			JOINT Spine2
			{
				OFFSET 0.001457 0.052922 0.025425
				CHANNELS 3 Zrotation Yrotation Xrotation
				JOINT Neck
				{
					OFFSET -0.002778 0.213870 -0.042857
					CHANNELS 3 Zrotation Yrotation Xrotation
					JOINT Head
					{
						OFFSET 0.005152 0.064970 0.051349
						CHANNELS 3 Zrotation Yrotation Xrotation
						End Site
						{
							OFFSET 0.000000 0.000000 0.000000
						}
					}
				}
				JOINT LeftShoulder
				{
					OFFSET 0.078845 0.121749 -0.034090
					CHANNELS 3 Zrotation Yrotation Xrotation
					JOINT LeftArm
					{
						OFFSET 0.090977 0.030469 -0.008868
						CHANNELS 3 Zrotation Yrotation Xrotation
						JOINT LeftForeArm
						{
							OFFSET 0.259612 -0.012772 -0.027456
							CHANNELS 3 Zrotation Yrotation Xrotation
							JOINT LeftHand
							{
								OFFSET 0.249234 0.008986 -0.001171
								CHANNELS 3 Zrotation Yrotation Xrotation
								End Site
								{
									OFFSET 0.000000 0.000000 0.000000
								}
							}
						}
					}
				}
				JOINT RightShoulder
				{
					OFFSET -0.081759 0.118833 -0.038615
					CHANNELS 3 Zrotation Yrotation Xrotation
					JOINT RightArm
					{
						OFFSET -0.096012 0.032551 -0.009143
						CHANNELS 3 Zrotation Yrotation Xrotation
						JOINT RightForeArm
						{
							OFFSET -0.253742 -0.013329 -0.021401
							CHANNELS 3 Zrotation Yrotation Xrotation
							JOINT RightHand
							{
								OFFSET -0.255298 0.007772 -0.005559
								CHANNELS 3 Zrotation Yrotation Xrotation
								End Site
								{
									OFFSET 0.000000 0.000000 0.000000
								}
							}
						}
					}
				}
			}
		}
	}
}
MOTION
Frames: 11
Frame Time: 0.050000
0.077589 0.885527 -0.090681 1.734451 -1.108062 2.363750 4.966880 -1.509238 -31.701112 -2.648106 0.047110 47.952503 1.556521 5.440002 6.178479 0.000000 0.000000 0.000000 -9.242135 1.071993 -34.532850 3.078682 0.423167 41.548308 -9.750719 -22.688490 18.015695 0.000000 0.000000 0.000000 -0.108441 -0.821197 22.013503 4.635615 -2.462775 3.520707 -1.746836 -5.681395 4.825976 -4.922890 3.621534 -10.972096 0.000000 0.000000 0.000000 9.982594 -12.583099 3.567881 -15.345240 -32.388887 1.272549 114.629763 -9.884277 -9.096262 0.000000 0.000000 0.000000 -20.337120 11.648248 4.424437 18.526817 48.942680 2.742255 -115.785508 7.002519 -10.201634 0.000000 0.000000 0.000000 
0.078320 0.886150 -0.091237 1.613017 -1.118372 2.135664 4.901680 -1.503348 -31.219807 -2.571557 0.002794 47.413847 1.835239 5.954585 6.194576 0.000000 0.000000 0.000000 -8.938444 1.131245 -33.789703 2.719824 0.586916 40.725470 -9.748399 -22.701388 17.566613 0.000000 0.000000 0.000000 -0.232033 -0.800441 22.160191 4.627321 -2.463259 3.556334 -1.601364 -5.191463 5.023948 -4.235440 3.191381 -11.428504 0.000000 0.000000 0.000000 9.845594 -12.459949 3.567217 -15.339437 -31.965764 1.192898 115.100532 -10.382179 -10.258356 0.000000 0.000000 0.000000 -20.263946 11.936148 4.375916 17.318499 49.728198 2.443258 -115.121157 6.556064 -9.099377 0.000000 0.000000 0.000000 
0.078946 0.886277 -0.091508 1.464941 -1.283131 2.135224 4.971892 -1.456083 -30.909534 -2.592902 0.052961 46.994765 2.146362 6.383166 5.732300 0.000000 0.000000 0.000000 -8.431320 1.274381 -33.410825 2.102804 0.898273 40.079507 -9.710860 -22.684694 17.090869 0.000000 0.000000 0.000000 -0.303458 -0.766197 21.789225 4.451850 -2.391342 3.852246 -1.318842 -4.729807 4.972731 -3.988436 3.055093 -11.078470 0.000000 0.000000 0.000000 10.049983 -12.068649 3.466724 -15.613707 -31.765174 1.207957 115.026547 -10.929913 -11.223128 0.000000 0.000000 0.000000 -20.485091 12.184353 4.359928 16.655806 50.229671 2.299122 -114.437452 6.586675 -8.817464 0.000000 0.000000 0.000000 
0.079449 0.885550 -0.091576 1.224089 -1.421469 2.018563 5.033977 -1.401455 -30.318980 -2.512275 0.037320 46.544052 2.634517 6.934840 4.493275 0.000000 0.000000 0.000000 -8.034249 1.371166 -32.816914 1.831084 1.027205 39.331322 -9.731446 -22.769359 16.252990 0.000000 0.000000 0.000000 -0.462637 -0.728336 21.809056 4.482035 -2.367443 3.313376 -1.168246 -4.443526 5.778168 -3.640928 2.837674 -11.861818 0.000000 0.000000 0.000000 10.519353 -12.020164 3.405652 -15.644363 -31.252988 1.121802 115.276457 -11.018020 -11.506380 0.000000 0.000000 0.000000 -20.781363 12.590434 4.351065 15.251745 50.538566 1.759481 -113.889536 6.192676 -8.036318 0.000000 0.000000 0.000000 
0.079772 0.884388 -0.091249 0.919718 -1.385941 1.708194 5.234660 -1.329223 -29.766790 -2.350130 -0.069706 46.488445 2.712170 6.771783 3.396572 0.000000 0.000000 0.000000 -7.550690 1.468210 -32.364966 1.557061 1.151232 39.265143 -9.809419 -22.896740 15.830578 0.000000 0.000000 0.000000 -0.567871 -0.713946 21.900362 4.448889 -2.372603 3.573602 -0.854775 -4.182278 5.584872 -3.497746 2.763518 -12.183760 0.000000 0.000000 0.000000 10.736006 -12.053569 3.413104 -15.669015 -30.995460 1.098066 115.289229 -11.295346 -12.078287 0.000000 0.000000 0.000000 -21.034363 12.989292 4.368573 14.287060 50.546173 1.443625 -113.320549 6.111179 -7.740071 0.000000 0.000000 0.000000 
0.079895 0.883046 -0.090610 0.667950 -1.133260 1.508200 5.354921 -1.305785 -29.423077 -2.137833 -0.255127 46.637170 2.704607 6.394409 2.147983 0.000000 0.000000 0.000000 -7.276662 1.487313 -31.897593 1.496641 1.132822 39.089017 -9.994076 -23.184995 15.292878 0.000000 0.000000 0.000000 -0.772278 -0.693466 22.173047 4.646846 -2.464339 3.342924 -0.738680 -4.246415 5.932065 -3.205223 2.585006 -13.830799 0.000000 0.000000 0.000000 11.178584 -11.695500 3.277587 -15.394929 -30.980683 1.044091 115.016493 -11.001677 -11.606250 0.000000 0.000000 0.000000 -21.402408 13.029828 4.347460 13.321100 50.457135 1.041633 -112.881683 5.963284 -7.485078 0.000000 0.000000 0.000000 
0.079865 0.881904 -0.089704 0.356588 -0.797805 1.397107 5.626139 -1.261884 -29.283585 -1.773278 -0.552661 46.879293 2.237497 5.162273 1.216435 0.000000 0.000000 0.000000 -6.970773 1.507168 -31.442066 1.484326 1.073257 38.824274 -10.220438 -23.539556 14.797890 0.000000 0.000000 0.000000 -0.832648 -0.698886 22.180529 4.709930 -2.502446 3.321306 -0.438369 -4.279137 6.057700 -2.925384 2.415263 -14.206151 0.000000 0.000000 0.000000 11.248233 -11.583553 3.242750 -15.461465 -30.777866 1.025483 114.929530 -10.915144 -11.496291 0.000000 0.000000 0.000000 -21.445752 12.993435 4.323734 13.475612 49.991288 1.091391 -113.227112 6.571501 -8.388498 0.000000 0.000000 0.000000 
0.079843 0.881099 -0.088597 0.034825 -0.421002 1.381212 5.785176 -1.248741 -29.115155 -1.501063 -0.804620 46.974143 2.217380 4.738280 0.101080 0.000000 0.000000 0.000000 -6.662282 1.535368 -31.215654 1.482807 1.009021 38.775356 -10.445317 -23.873772 14.640838 0.000000 0.000000 0.000000 -0.907491 -0.700869 22.072484 4.940021 -2.634091 3.402591 -0.270267 -4.198821 5.989382 -2.452428 2.141369 -14.456404 0.000000 0.000000 0.000000 11.405571 -11.239981 3.165672 -15.873387 -30.934153 1.107243 114.968809 -10.848143 -11.541117 0.000000 0.000000 0.000000 -21.323366 13.091102 4.299637 14.069565 49.129848 1.343604 -113.641287 7.373510 -9.474471 0.000000 0.000000 0.000000 
0.079876 0.880915 -0.087443 -0.137798 0.018104 1.434344 5.882857 -1.263940 -29.130344 -1.248896 -1.056344 47.053054 1.913247 3.909604 -0.410704 0.000000 0.000000 0.000000 -6.543045 1.511421 -30.983541 1.504647 0.920560 38.599220 -10.661988 -24.187605 14.583664 0.000000 0.000000 0.000000 -0.910826 -0.719036 21.996371 5.023413 -2.669046 3.221280 -0.246253 -4.311274 6.212042 -2.310666 2.061081 -14.587069 0.000000 0.000000 0.000000 11.179948 -10.967191 3.113382 -16.147486 -30.925083 1.134019 115.356293 -10.691396 -11.453098 0.000000 0.000000 0.000000 -20.833056 12.787890 4.239224 14.969460 48.676038 1.670661 -114.140247 8.636355 -11.322107 0.000000 0.000000 0.000000 
0.080127 0.881198 -0.086426 -0.358498 0.656891 1.464185 5.991307 -1.301890 -29.315864 -1.115487 -1.299941 47.377207 1.686202 3.309293 -0.703746 0.000000 0.000000 0.000000 -6.370050 1.484842 -30.834813 1.477613 0.828035 38.626842 -10.936677 -24.527485 14.995992 0.000000 0.000000 0.000000 -0.787795 -0.773244 21.928493 5.071833 -2.710225 3.280609 -0.131899 -4.319957 6.083243 -1.671365 1.689257 -14.785320 0.000000 0.000000 0.000000 10.837977 -10.813940 3.121535 -16.475535 -31.247337 1.215916 115.580549 -10.363185 -11.209205 0.000000 0.000000 0.000000 -20.522423 12.566058 4.172532 16.572962 47.816277 2.270267 -115.109105 9.360748 -12.409978 0.000000 0.000000 0.000000 
0.080581 0.881751 -0.085707 -0.572263 1.414140 1.591343 6.012871 -1.372061 -29.489229 -0.867295 -1.633076 47.590204 1.450845 2.507777 -1.390039 0.000000 0.000000 0.000000 -6.302700 1.421820 -30.653419 1.558089 0.660330 38.414239 -11.255477 -24.923434 15.411886 0.000000 0.000000 0.000000 -0.555388 -0.853183 21.823438 5.172223 -2.760956 3.139929 -0.157764 -4.368827 6.030200 -1.091270 1.359189 -14.885016 0.000000 0.000000 0.000000 10.423592 -10.839379 3.180985 -16.783081 -31.513955 1.284038 116.273953 -10.253778 -11.442451 0.000000 0.000000 0.000000 -19.976318 12.177677 4.071612 17.724406 47.262289 2.710058 -115.540803 9.990611 -13.208387 0.000000 0.000000 0.000000 
